<?xml version="1.0" encoding="UTF-8" standalone="no"?>
<!-- Created with Inkscape (http://www.inkscape.org/) -->

<svg
   version="1.1"
   id="svg17078"
   width="886.69336"
   height="666.66669"
   viewBox="0 0 886.69336 666.66669"
   sodipodi:docname="36278.eps"
   xmlns:inkscape="http://www.inkscape.org/namespaces/inkscape"
   xmlns:sodipodi="http://sodipodi.sourceforge.net/DTD/sodipodi-0.dtd"
   xmlns="http://www.w3.org/2000/svg"
   xmlns:svg="http://www.w3.org/2000/svg">
  <defs
     id="defs17082">
    <clipPath
       clipPathUnits="userSpaceOnUse"
       id="clipPath17396">
      <path
         d="m 1389.43,3765.39 c -16.41,0 -32.88,0.12 -49.31,0.36 6.44,-0.04 12.88,-0.06 19.33,-0.06 349.65,0 702.18,54.45 1057.43,157.93 -339.85,-105.07 -682.37,-158.23 -1027.45,-158.23 m 1038.22,161.57 -71.81,36.89 -48.79,187.67 -99.64,18.58 v 0 l -41.34,7.71 v 0 l -81.82,15.25 83.05,8.21 185.05,-24.91 75.54,-249.32 c -0.09,-0.03 -0.16,-0.05 -0.24,-0.08 m -2084.494,0.01 c -0.086,0.03 -0.129,0.04 -0.215,0.07 l 106.196,493.35 117.062,22.45 110.403,-1.02 1.691,-2.02 -161.184,-31.49 -49.089,-199.2 130.281,-34.93 -130.281,34.93 -62.309,-17.46 192.59,-17.47 -42.363,1.21 v 0 l -89.809,2.57 -50.981,-205.81 c 0.059,-0.01 0.114,-0.03 0.168,-0.05 l -0.168,-0.06 -71.992,-45.07 m 2009.154,318.85 -54.7,20.88 -74.73,309.85 c 0,0 0,0 0,0 l -2.69,11.13 v 0 c -3.37,-0.67 -6.73,-1.3 -10.11,-1.97 0,-0.02 0,-0.03 0,-0.05 -60.03,-11.92 -119.91,-22.77 -179.76,-32.52 0,0.02 0.01,0.04 0.01,0.07 -13.32,-2.17 -26.63,-4.3 -39.93,-6.36 0,-0.02 -0.01,-0.04 -0.01,-0.06 -36.97,-5.74 -73.88,-11.04 -110.79,-15.91 0,0.03 0,0.05 0,0.07 -19.43,-2.56 -38.84,-5 -58.25,-7.32 0,-0.03 0,-0.06 0,-0.08 -24.42,-2.93 -48.88,-5.67 -73.27,-8.2 0.01,0.01 0.01,0.02 0.01,0.03 -22.26,-2.32 -44.51,-4.46 -66.74,-6.45 0,-0.02 0,-0.03 -0.01,-0.04 -23.7,-2.13 -47.41,-4.06 -71.08,-5.81 0,0.02 0,0.04 -0.01,0.06 -10.75,-0.79 -21.07,-1.55 -31.39,-2.26 -17.86,-1.2 -35.67,-2.28 -53.51,-3.25 -2.37,-0.13 -4.77,-0.24 -7.2,-0.36 v -0.03 c -18.69,-0.99 -37.4,-1.86 -56.07,-2.61 -0.01,0.02 -0.02,0.04 -0.03,0.06 -15.32,-0.61 -30.66,-1.17 -45.96,-1.62 -0.01,-0.01 -0.01,-0.03 -0.02,-0.05 -23.92,-0.7 -47.88,-1.2 -71.77,-1.5 0,0.02 0.01,0.05 0.01,0.08 -17.67,-0.22 -35.33,-0.34 -52.98,-0.34 -1.92,0 -3.85,0 -5.77,0 0,-0.02 0,-0.05 0,-0.07 -27.79,0.04 -55.56,0.36 -83.3,0.96 0,0.03 0,0.05 0,0.07 -24.76,0.54 -49.51,1.31 -74.24,2.3 0,-0.03 0,-0.05 0,-0.07 -22.6,0.9 -45.17,2 -67.74,3.28 0.01,0.01 0.01,0.01 0.01,0.02 -15.55,0.88 -31.08,1.89 -46.6,2.96 -0.01,-0.01 -0.01,-0.02 -0.02,-0.04 -29.541,2.04 -59.096,4.42 -88.58,7.12 0.012,0.03 0.019,0.06 0.027,0.09 -24.508,2.25 -49,4.66 -73.469,7.37 0,0 0,0 0,0 -32.824,3.64 -65.632,7.72 -98.382,12.23 0.004,0.01 0.007,0.02 0.011,0.04 -32.746,4.5 -65.457,9.46 -98.132,14.84 l -0.04,-0.05 c 0,0 -0.003,-0.01 -0.003,-0.01 -38.504,6.34 -76.93,13.27 -115.336,20.84 l -30.211,-71.75 -41.535,-9.28 29.98,126.41 c 283.043,-45.62 561.34,-70.84 833.61,-70.84 318.8,0 629.37,34.56 930.01,111.43 l 90.69,-403.29"
         id="path17394" />
    </clipPath>
    <linearGradient
       x1="0"
       y1="0"
       x2="1"
       y2="0"
       gradientUnits="userSpaceOnUse"
       gradientTransform="matrix(-5.66446,523.954,523.954,5.66446,1384.4,4020.82)"
       spreadMethod="pad"
       id="linearGradient17402">
      <stop
         style="stop-opacity:1;stop-color:#8a241c"
         offset="0"
         id="stop17398" />
      <stop
         style="stop-opacity:1;stop-color:#fab944"
         offset="1"
         id="stop17400" />
    </linearGradient>
    <clipPath
       clipPathUnits="userSpaceOnUse"
       id="clipPath17414">
      <path
         d="m 1359.45,3765.69 c -6.45,0 -12.89,0.02 -19.33,0.06 -329.92,4.82 -662.167,58.22 -996.964,161.22 l 71.992,45.07 0.168,0.06 c 226.551,-68.61 469.118,-117.71 732.424,-141.56 l 26.44,49.1 13.21,-49.1 c 48.18,-1.73 96,-2.58 143.52,-2.58 358.81,0 699.15,48.66 1025.23,134.75 l -0.3,1.14 71.81,-36.89 c -3.6,-1.12 -7.18,-2.23 -10.77,-3.34 -355.25,-103.48 -707.78,-157.93 -1057.43,-157.93"
         id="path17412" />
    </clipPath>
    <linearGradient
       x1="0"
       y1="0"
       x2="1"
       y2="0"
       gradientUnits="userSpaceOnUse"
       gradientTransform="matrix(-5.66446,523.954,523.954,5.66446,1384.4,4020.82)"
       spreadMethod="pad"
       id="linearGradient17420">
      <stop
         style="stop-opacity:1;stop-color:#5b1d13"
         offset="0"
         id="stop17416" />
      <stop
         style="stop-opacity:1;stop-color:#ad8033"
         offset="1"
         id="stop17418" />
    </linearGradient>
    <clipPath
       clipPathUnits="userSpaceOnUse"
       id="clipPath17430">
      <path
         d="m 2084.25,4193.06 213.36,73.64 54.7,-20.88 -185.01,-44.55 -83.05,-8.21"
         id="path17428" />
    </clipPath>
    <linearGradient
       x1="0"
       y1="0"
       x2="1"
       y2="0"
       gradientUnits="userSpaceOnUse"
       gradientTransform="matrix(-5.66446,523.954,523.954,5.66446,1384.4,4020.82)"
       spreadMethod="pad"
       id="linearGradient17436">
      <stop
         style="stop-opacity:1;stop-color:#5b1d13"
         offset="0"
         id="stop17432" />
      <stop
         style="stop-opacity:1;stop-color:#ad8033"
         offset="1"
         id="stop17434" />
    </linearGradient>
    <clipPath
       clipPathUnits="userSpaceOnUse"
       id="clipPath17446">
      <path
         d="m 678.293,4439.8 -1.691,2.02 -110.403,1.02 -98.179,39.27 41.535,9.28 171.82,-50.98 -3.082,-0.61"
         id="path17444" />
    </clipPath>
    <linearGradient
       x1="0"
       y1="0"
       x2="1"
       y2="0"
       gradientUnits="userSpaceOnUse"
       gradientTransform="matrix(-5.66446,523.954,523.954,5.66446,1384.4,4020.82)"
       spreadMethod="pad"
       id="linearGradient17452">
      <stop
         style="stop-opacity:1;stop-color:#5b1d13"
         offset="0"
         id="stop17448" />
      <stop
         style="stop-opacity:1;stop-color:#ad8033"
         offset="1"
         id="stop17450" />
    </linearGradient>
    <clipPath
       clipPathUnits="userSpaceOnUse"
       id="clipPath17464">
      <path
         d="m 598.301,4174.18 -192.59,17.47 62.309,17.46 130.281,-34.93"
         id="path17462" />
    </clipPath>
    <linearGradient
       x1="0"
       y1="0"
       x2="1"
       y2="0"
       gradientUnits="userSpaceOnUse"
       gradientTransform="matrix(-5.66446,523.954,523.954,5.66446,1384.4,4020.82)"
       spreadMethod="pad"
       id="linearGradient17470">
      <stop
         style="stop-opacity:1;stop-color:#5b1d13"
         offset="0"
         id="stop17466" />
      <stop
         style="stop-opacity:1;stop-color:#ad8033"
         offset="1"
         id="stop17468" />
    </linearGradient>
    <clipPath
       clipPathUnits="userSpaceOnUse"
       id="clipPath17480">
      <path
         d="m 1060.28,4497.73 c -15.53,0.89 -31.09,1.87 -46.61,2.94 0.01,0.02 0.01,0.03 0.02,0.04 15.52,-1.07 31.05,-2.08 46.6,-2.96 0,-0.01 0,-0.01 -0.01,-0.02"
         id="path17478" />
    </clipPath>
    <linearGradient
       x1="0"
       y1="0"
       x2="1"
       y2="0"
       gradientUnits="userSpaceOnUse"
       gradientTransform="matrix(-5.66446,523.954,523.954,5.66446,1384.4,4020.82)"
       spreadMethod="pad"
       id="linearGradient17486">
      <stop
         style="stop-opacity:1;stop-color:#aa3e1f"
         offset="0"
         id="stop17482" />
      <stop
         style="stop-opacity:1;stop-color:#f9aa34"
         offset="1"
         id="stop17484" />
    </linearGradient>
    <clipPath
       clipPathUnits="userSpaceOnUse"
       id="clipPath17498">
      <path
         d="m 1291.73,4491.18 c -2.05,0 -4.12,0.01 -6.17,0.01 0,0.02 0,0.05 0,0.07 1.92,0 3.85,0 5.77,0 17.65,0 35.31,0.12 52.98,0.34 0,-0.03 -0.01,-0.06 -0.01,-0.08 -17.54,-0.22 -35.05,-0.34 -52.57,-0.34"
         id="path17496" />
    </clipPath>
    <linearGradient
       x1="0"
       y1="0"
       x2="1"
       y2="0"
       gradientUnits="userSpaceOnUse"
       gradientTransform="matrix(-5.66446,523.954,523.954,5.66446,1384.4,4020.82)"
       spreadMethod="pad"
       id="linearGradient17504">
      <stop
         style="stop-opacity:1;stop-color:#aa3e1f"
         offset="0"
         id="stop17500" />
      <stop
         style="stop-opacity:1;stop-color:#f9aa34"
         offset="1"
         id="stop17502" />
    </linearGradient>
    <clipPath
       clipPathUnits="userSpaceOnUse"
       id="clipPath17516">
      <path
         d="m 1416.07,4493.02 c 0.01,0.02 0.01,0.04 0.02,0.05 15.3,0.45 30.64,1.01 45.96,1.62 0.01,-0.02 0.02,-0.04 0.03,-0.06 -15.35,-0.62 -30.67,-1.15 -46.01,-1.61 m 102.08,4.22 v 0.03 c 2.43,0.12 4.83,0.23 7.2,0.36 -2.4,-0.14 -4.8,-0.27 -7.2,-0.39 m 60.71,3.64 c 10.32,0.71 20.64,1.47 31.39,2.26 0.01,-0.02 0.01,-0.04 0.01,-0.06 -10.48,-0.78 -20.93,-1.51 -31.4,-2.2"
         id="path17514" />
    </clipPath>
    <linearGradient
       x1="0"
       y1="0"
       x2="1"
       y2="0"
       gradientUnits="userSpaceOnUse"
       gradientTransform="matrix(-5.66446,523.954,523.954,5.66446,1384.4,4020.82)"
       spreadMethod="pad"
       id="linearGradient17522">
      <stop
         style="stop-opacity:1;stop-color:#aa3e1f"
         offset="0"
         id="stop17518" />
      <stop
         style="stop-opacity:1;stop-color:#f9aa34"
         offset="1"
         id="stop17520" />
    </linearGradient>
    <clipPath
       clipPathUnits="userSpaceOnUse"
       id="clipPath17534">
      <path
         d="m 1202.26,4492.15 c -24.78,0.54 -49.5,1.3 -74.24,2.3 0,0.02 0,0.04 0,0.07 24.73,-0.99 49.48,-1.76 74.24,-2.3 0,-0.02 0,-0.04 0,-0.07"
         id="path17532" />
    </clipPath>
    <linearGradient
       x1="0"
       y1="0"
       x2="1"
       y2="0"
       gradientUnits="userSpaceOnUse"
       gradientTransform="matrix(-5.66446,523.954,523.954,5.66446,1384.4,4020.82)"
       spreadMethod="pad"
       id="linearGradient17540">
      <stop
         style="stop-opacity:1;stop-color:#aa3e1f"
         offset="0"
         id="stop17536" />
      <stop
         style="stop-opacity:1;stop-color:#f9aa34"
         offset="1"
         id="stop17538" />
    </linearGradient>
    <clipPath
       clipPathUnits="userSpaceOnUse"
       id="clipPath17552">
      <path
         d="m 598.301,4174.18 -42.363,1.21 v 0 l 42.363,-1.21 m 154.965,353.3 c -32.75,4.5 -65.485,9.45 -98.164,14.82 0,0 0.003,0.01 0.003,0.01 l 0.04,0.05 c 32.675,-5.38 65.386,-10.34 98.132,-14.84 -0.004,-0.02 -0.007,-0.03 -0.011,-0.04"
         id="path17550" />
    </clipPath>
    <linearGradient
       x1="0"
       y1="0"
       x2="1"
       y2="0"
       gradientUnits="userSpaceOnUse"
       gradientTransform="matrix(-5.66446,523.954,523.954,5.66446,1384.4,4020.82)"
       spreadMethod="pad"
       id="linearGradient17558">
      <stop
         style="stop-opacity:1;stop-color:#aa3e1f"
         offset="0"
         id="stop17554" />
      <stop
         style="stop-opacity:1;stop-color:#f9aa34"
         offset="1"
         id="stop17556" />
    </linearGradient>
    <clipPath
       clipPathUnits="userSpaceOnUse"
       id="clipPath17570">
      <path
         d="m 1681.34,4508.89 c 0.01,0.01 0.01,0.02 0.01,0.04 22.23,1.99 44.48,4.13 66.74,6.45 0,-0.01 0,-0.02 -0.01,-0.03 -22.28,-2.32 -44.48,-4.47 -66.74,-6.46"
         id="path17568" />
    </clipPath>
    <linearGradient
       x1="0"
       y1="0"
       x2="1"
       y2="0"
       gradientUnits="userSpaceOnUse"
       gradientTransform="matrix(-5.66446,523.954,523.954,5.66446,1384.4,4020.82)"
       spreadMethod="pad"
       id="linearGradient17576">
      <stop
         style="stop-opacity:1;stop-color:#aa3e1f"
         offset="0"
         id="stop17572" />
      <stop
         style="stop-opacity:1;stop-color:#f9aa34"
         offset="1"
         id="stop17574" />
    </linearGradient>
    <clipPath
       clipPathUnits="userSpaceOnUse"
       id="clipPath17588">
      <path
         d="m 925.09,4507.79 c -24.5,2.25 -48.981,4.74 -73.442,7.46 0,0 0,0 0,0 24.469,-2.71 48.961,-5.12 73.469,-7.37 -0.008,-0.03 -0.015,-0.06 -0.027,-0.09"
         id="path17586" />
    </clipPath>
    <linearGradient
       x1="0"
       y1="0"
       x2="1"
       y2="0"
       gradientUnits="userSpaceOnUse"
       gradientTransform="matrix(-5.66446,523.954,523.954,5.66446,1384.4,4020.82)"
       spreadMethod="pad"
       id="linearGradient17594">
      <stop
         style="stop-opacity:1;stop-color:#aa3e1f"
         offset="0"
         id="stop17590" />
      <stop
         style="stop-opacity:1;stop-color:#f9aa34"
         offset="1"
         id="stop17592" />
    </linearGradient>
    <clipPath
       clipPathUnits="userSpaceOnUse"
       id="clipPath17608">
      <path
         d="m 1821.35,4523.55 c 0,0.02 0,0.05 0,0.08 19.41,2.32 38.82,4.76 58.25,7.32 0,-0.02 0,-0.04 0,-0.07 -19.43,-2.56 -38.84,-5.01 -58.25,-7.33 m 169.04,23.24 c 0,0.02 0.01,0.04 0.01,0.06 13.3,2.06 26.61,4.19 39.93,6.36 0,-0.03 -0.01,-0.05 -0.01,-0.07 -13.29,-2.17 -26.64,-4.3 -39.93,-6.35"
         id="path17606" />
    </clipPath>
    <linearGradient
       x1="0"
       y1="0"
       x2="1"
       y2="0"
       gradientUnits="userSpaceOnUse"
       gradientTransform="matrix(-5.66446,523.954,523.954,5.66446,1384.4,4020.82)"
       spreadMethod="pad"
       id="linearGradient17614">
      <stop
         style="stop-opacity:1;stop-color:#aa3e1f"
         offset="0"
         id="stop17610" />
      <stop
         style="stop-opacity:1;stop-color:#f9aa34"
         offset="1"
         id="stop17612" />
    </linearGradient>
    <clipPath
       clipPathUnits="userSpaceOnUse"
       id="clipPath17626">
      <path
         d="m 2222.88,4576.55 -2.69,11.13 2.69,-11.13 c 0,0 0,0 0,0 m -12.8,9.11 c 0,0.02 0,0.03 0,0.05 3.38,0.67 6.74,1.3 10.11,1.97 -3.36,-0.67 -6.75,-1.35 -10.11,-2.02"
         id="path17624" />
    </clipPath>
    <linearGradient
       x1="0"
       y1="0"
       x2="1"
       y2="0"
       gradientUnits="userSpaceOnUse"
       gradientTransform="matrix(-5.66446,523.954,523.954,5.66446,1384.4,4020.82)"
       spreadMethod="pad"
       id="linearGradient17632">
      <stop
         style="stop-opacity:1;stop-color:#aa3e1f"
         offset="0"
         id="stop17628" />
      <stop
         style="stop-opacity:1;stop-color:#f9aa34"
         offset="1"
         id="stop17630" />
    </linearGradient>
    <clipPath
       clipPathUnits="userSpaceOnUse"
       id="clipPath17644">
      <path
         d="m 2207.41,4170.1 -41.34,7.71 v 0 l 41.34,-7.71 v 0"
         id="path17642" />
    </clipPath>
    <linearGradient
       x1="0"
       y1="0"
       x2="1"
       y2="0"
       gradientUnits="userSpaceOnUse"
       gradientTransform="matrix(-5.66446,523.954,523.954,5.66446,1384.4,4020.82)"
       spreadMethod="pad"
       id="linearGradient17650">
      <stop
         style="stop-opacity:1;stop-color:#aa3e1f"
         offset="0"
         id="stop17646" />
      <stop
         style="stop-opacity:1;stop-color:#f9aa34"
         offset="1"
         id="stop17648" />
    </linearGradient>
    <clipPath
       clipPathUnits="userSpaceOnUse"
       id="clipPath17662">
      <path
         d="m 774.918,4462.11 c 0,0 -77.473,-220.88 -74.008,-230.91 3.461,-10.04 72.195,-44.5 72.195,-44.5 h -78.476 l -36.914,-156.07 c 0,0 173.586,-65.56 404.115,-81.44 230.53,-15.89 512.72,-20.58 642.91,0.15 130.18,20.73 406.46,52.69 406.46,52.69 0,0 -43.28,158.17 -56.59,158.03 -13.32,-0.14 -81.39,26.48 -81.39,26.48 0,0 119.28,69.36 148.6,89.62 29.32,20.26 -44.51,220.87 -50.87,215.43 -6.36,-5.44 -254.85,-42.45 -448.48,-63.88 -193.64,-21.44 -847.552,34.4 -847.552,34.4 z"
         id="path17660" />
    </clipPath>
    <linearGradient
       x1="0"
       y1="0"
       x2="1"
       y2="0"
       gradientUnits="userSpaceOnUse"
       gradientTransform="matrix(39.9539,-483.886,-483.886,-39.9539,1368.51,4466.09)"
       spreadMethod="pad"
       id="linearGradient17668">
      <stop
         style="stop-opacity:1;stop-color:#8a241c"
         offset="0"
         id="stop17664" />
      <stop
         style="stop-opacity:1;stop-color:#fab944"
         offset="1"
         id="stop17666" />
    </linearGradient>
    <clipPath
       clipPathUnits="userSpaceOnUse"
       id="clipPath17680">
      <path
         d="m 1062.27,4253.79 v -39.57 h 15.92 c 11.11,0 19.2,1.3 24.26,3.94 4.85,2.63 7.27,7.72 7.27,15.3 0,4.95 -1.32,9.15 -3.94,12.59 -2.53,3.34 -5.92,5.46 -10.16,6.37 -4.04,0.91 -10.92,1.37 -20.62,1.37 z m 21.22,-164.65 H 960.23 v 50.49 h 20.477 v 109.9 H 960.23 v 50.49 h 129.32 c 29.72,0 51.45,-2.88 65.19,-8.63 13.75,-5.87 23.86,-13.87 30.32,-23.97 6.48,-10.1 9.72,-21.17 9.72,-33.19 0,-14.86 -3.85,-27.19 -11.54,-37 -7.67,-9.9 -17.83,-17.08 -30.46,-21.52 -12.43,-4.35 -31.63,-6.52 -57.61,-6.52 h -32.9 v -29.56 h 21.22 z"
         id="path17678" />
    </clipPath>
    <linearGradient
       x1="0"
       y1="0"
       x2="1"
       y2="0"
       gradientUnits="userSpaceOnUse"
       gradientTransform="matrix(9.98572,282.929,282.929,-9.98572,1070.66,4072.39)"
       spreadMethod="pad"
       id="linearGradient17686">
      <stop
         style="stop-opacity:1;stop-color:#672516"
         offset="0"
         id="stop17682" />
      <stop
         style="stop-opacity:1;stop-color:#e87c17"
         offset="1"
         id="stop17684" />
    </linearGradient>
    <clipPath
       clipPathUnits="userSpaceOnUse"
       id="clipPath17696">
      <path
         d="m 1413.99,4089.14 h -200.72 v 50.49 h 18.95 v 109.9 h -18.95 v 50.49 h 120.53 v -50.49 h -20.01 v -109.9 h 49.87 v 33.8 h 50.33 z"
         id="path17694" />
    </clipPath>
    <linearGradient
       x1="0"
       y1="0"
       x2="1"
       y2="0"
       gradientUnits="userSpaceOnUse"
       gradientTransform="matrix(9.98572,282.929,282.929,-9.98572,1309.02,4063.98)"
       spreadMethod="pad"
       id="linearGradient17702">
      <stop
         style="stop-opacity:1;stop-color:#672516"
         offset="0"
         id="stop17698" />
      <stop
         style="stop-opacity:1;stop-color:#e87c17"
         offset="1"
         id="stop17700" />
    </linearGradient>
    <clipPath
       clipPathUnits="userSpaceOnUse"
       id="clipPath17712">
      <path
         d="m 1525.88,4246.5 -19.86,-58.36 h 37.75 z m -19.86,-157.36 h -83.53 v 50.49 h 16.07 l 39.56,109.9 h -16.98 v 50.49 h 151.62 v -50.49 h -16.98 l 40.32,-109.9 h 15.47 v -50.49 h -110.08 v 46.23 H 1560 l -8.04,26.54 h -53.97 l -9.25,-26.54 h 17.28 z"
         id="path17710" />
    </clipPath>
    <linearGradient
       x1="0"
       y1="0"
       x2="1"
       y2="0"
       gradientUnits="userSpaceOnUse"
       gradientTransform="matrix(9.98572,282.929,282.929,-9.98572,1534.97,4056)"
       spreadMethod="pad"
       id="linearGradient17718">
      <stop
         style="stop-opacity:1;stop-color:#672516"
         offset="0"
         id="stop17714" />
      <stop
         style="stop-opacity:1;stop-color:#e87c17"
         offset="1"
         id="stop17716" />
    </linearGradient>
    <clipPath
       clipPathUnits="userSpaceOnUse"
       id="clipPath17728">
      <path
         d="m 1810.75,4089.14 h -115.23 v 50.49 h 16.98 v 33.5 l -53.22,76.4 h -14.39 v 50.49 h 110.22 v -50.49 h -12.59 l 22.44,-43.05 27.14,43.05 h -12.89 v 50.49 h 81.11 v -50.49 h -13.19 l -53.07,-76.4 v -33.5 h 16.69 z"
         id="path17726" />
    </clipPath>
    <linearGradient
       x1="0"
       y1="0"
       x2="1"
       y2="0"
       gradientUnits="userSpaceOnUse"
       gradientTransform="matrix(9.98572,282.929,282.929,-9.98572,1744.62,4048.6)"
       spreadMethod="pad"
       id="linearGradient17734">
      <stop
         style="stop-opacity:1;stop-color:#672516"
         offset="0"
         id="stop17730" />
      <stop
         style="stop-opacity:1;stop-color:#e87c17"
         offset="1"
         id="stop17732" />
    </linearGradient>
  </defs>
  <sodipodi:namedview
     id="namedview17080"
     pagecolor="#ffffff"
     bordercolor="#000000"
     borderopacity="0.25"
     inkscape:showpageshadow="2"
     inkscape:pageopacity="0.0"
     inkscape:pagecheckerboard="0"
     inkscape:deskcolor="#d1d1d1"
     showgrid="false" />
  <g
     inkscape:groupmode="layer"
     id="layer4"
     inkscape:label="Page 2"
     style="display:inline">
    <g
       id="g17390"
       transform="matrix(0.13333333,0,0,-0.13333333,0,666.66667)">
      <g
         id="g17392"
         clip-path="url(#clipPath17396)">
        <path
           d="m 1389.43,3765.39 c -16.41,0 -32.88,0.12 -49.31,0.36 6.44,-0.04 12.88,-0.06 19.33,-0.06 349.65,0 702.18,54.45 1057.43,157.93 -339.85,-105.07 -682.37,-158.23 -1027.45,-158.23 m 1038.22,161.57 -71.81,36.89 -48.79,187.67 -99.64,18.58 v 0 l -41.34,7.71 v 0 l -81.82,15.25 83.05,8.21 185.05,-24.91 75.54,-249.32 c -0.09,-0.03 -0.16,-0.05 -0.24,-0.08 m -2084.494,0.01 c -0.086,0.03 -0.129,0.04 -0.215,0.07 l 106.196,493.35 117.062,22.45 110.403,-1.02 1.691,-2.02 -161.184,-31.49 -49.089,-199.2 130.281,-34.93 -130.281,34.93 -62.309,-17.46 192.59,-17.47 -42.363,1.21 v 0 l -89.809,2.57 -50.981,-205.81 c 0.059,-0.01 0.114,-0.03 0.168,-0.05 l -0.168,-0.06 -71.992,-45.07 m 2009.154,318.85 -54.7,20.88 -74.73,309.85 c 0,0 0,0 0,0 l -2.69,11.13 v 0 c -3.37,-0.67 -6.73,-1.3 -10.11,-1.97 0,-0.02 0,-0.03 0,-0.05 -60.03,-11.92 -119.91,-22.77 -179.76,-32.52 0,0.02 0.01,0.04 0.01,0.07 -13.32,-2.17 -26.63,-4.3 -39.93,-6.36 0,-0.02 -0.01,-0.04 -0.01,-0.06 -36.97,-5.74 -73.88,-11.04 -110.79,-15.91 0,0.03 0,0.05 0,0.07 -19.43,-2.56 -38.84,-5 -58.25,-7.32 0,-0.03 0,-0.06 0,-0.08 -24.42,-2.93 -48.88,-5.67 -73.27,-8.2 0.01,0.01 0.01,0.02 0.01,0.03 -22.26,-2.32 -44.51,-4.46 -66.74,-6.45 0,-0.02 0,-0.03 -0.01,-0.04 -23.7,-2.13 -47.41,-4.06 -71.08,-5.81 0,0.02 0,0.04 -0.01,0.06 -10.75,-0.79 -21.07,-1.55 -31.39,-2.26 -17.86,-1.2 -35.67,-2.28 -53.51,-3.25 -2.37,-0.13 -4.77,-0.24 -7.2,-0.36 v -0.03 c -18.69,-0.99 -37.4,-1.86 -56.07,-2.61 -0.01,0.02 -0.02,0.04 -0.03,0.06 -15.32,-0.61 -30.66,-1.17 -45.96,-1.62 -0.01,-0.01 -0.01,-0.03 -0.02,-0.05 -23.92,-0.7 -47.88,-1.2 -71.77,-1.5 0,0.02 0.01,0.05 0.01,0.08 -17.67,-0.22 -35.33,-0.34 -52.98,-0.34 -1.92,0 -3.85,0 -5.77,0 0,-0.02 0,-0.05 0,-0.07 -27.79,0.04 -55.56,0.36 -83.3,0.96 0,0.03 0,0.05 0,0.07 -24.76,0.54 -49.51,1.31 -74.24,2.3 0,-0.03 0,-0.05 0,-0.07 -22.6,0.9 -45.17,2 -67.74,3.28 0.01,0.01 0.01,0.01 0.01,0.02 -15.55,0.88 -31.08,1.89 -46.6,2.96 -0.01,-0.01 -0.01,-0.02 -0.02,-0.04 -29.541,2.04 -59.096,4.42 -88.58,7.12 0.012,0.03 0.019,0.06 0.027,0.09 -24.508,2.25 -49,4.66 -73.469,7.37 0,0 0,0 0,0 -32.824,3.64 -65.632,7.72 -98.382,12.23 0.004,0.01 0.007,0.02 0.011,0.04 -32.746,4.5 -65.457,9.46 -98.132,14.84 l -0.04,-0.05 c 0,0 -0.003,-0.01 -0.003,-0.01 -38.504,6.34 -76.93,13.27 -115.336,20.84 l -30.211,-71.75 -41.535,-9.28 29.98,126.41 c 283.043,-45.62 561.34,-70.84 833.61,-70.84 318.8,0 629.37,34.56 930.01,111.43 l 90.69,-403.29"
           style="fill:url(#linearGradient17402);fill-opacity:1;fill-rule:nonzero;stroke:none"
           id="path17404" />
      </g>
    </g>
    <path
       d="m 134.012,376.575 c -33.517,0.193 -66.7698,5.403 -99.7179,16.109 l 0.0215,0.013 c 33.4797,-10.3 66.7044,-15.64 99.6964,-16.122 m 107.676,15.787 c 0.359,0.111 0.717,0.222 1.077,0.334 l 0.024,-0.012 c -0.367,-0.108 -0.734,-0.216 -1.101,-0.322"
       style="fill:#406639;fill-opacity:1;fill-rule:nonzero;stroke:none;stroke-width:0.1"
       id="path17406"
       transform="matrix(1.3333333,0,0,-1.3333333,0,666.66667)" />
    <g
       id="g17408"
       transform="matrix(0.13333333,0,0,-0.13333333,0,666.66667)">
      <g
         id="g17410"
         clip-path="url(#clipPath17414)">
        <path
           d="m 1359.45,3765.69 c -6.45,0 -12.89,0.02 -19.33,0.06 -329.92,4.82 -662.167,58.22 -996.964,161.22 l 71.992,45.07 0.168,0.06 c 226.551,-68.61 469.118,-117.71 732.424,-141.56 l 26.44,49.1 13.21,-49.1 c 48.18,-1.73 96,-2.58 143.52,-2.58 358.81,0 699.15,48.66 1025.23,134.75 l -0.3,1.14 71.81,-36.89 c -3.6,-1.12 -7.18,-2.23 -10.77,-3.34 -355.25,-103.48 -707.78,-157.93 -1057.43,-157.93"
           style="fill:url(#linearGradient17420);fill-opacity:1;fill-rule:nonzero;stroke:none"
           id="path17422" />
      </g>
    </g>
    <g
       id="g17424"
       transform="matrix(0.13333333,0,0,-0.13333333,0,666.66667)">
      <g
         id="g17426"
         clip-path="url(#clipPath17430)">
        <path
           d="m 2084.25,4193.06 213.36,73.64 54.7,-20.88 -185.01,-44.55 -83.05,-8.21"
           style="fill:url(#linearGradient17436);fill-opacity:1;fill-rule:nonzero;stroke:none"
           id="path17438" />
      </g>
    </g>
    <g
       id="g17440"
       transform="matrix(0.13333333,0,0,-0.13333333,0,666.66667)">
      <g
         id="g17442"
         clip-path="url(#clipPath17446)">
        <path
           d="m 678.293,4439.8 -1.691,2.02 -110.403,1.02 -98.179,39.27 41.535,9.28 171.82,-50.98 -3.082,-0.61"
           style="fill:url(#linearGradient17452);fill-opacity:1;fill-rule:nonzero;stroke:none"
           id="path17454" />
      </g>
    </g>
    <path
       d="m 53.9766,456.314 c 55.0504,-10.841 111.1534,-8.955 168.0424,2.454 l 7.742,-32.098 -21.336,-7.364 22.28,-4.154 4.909,-18.881 c -36.927,-9.749 -75.678,-14.698 -116.875,-13.217 l -1.321,4.91 -2.644,-4.91 c -26.3373,2.386 -50.5994,7.298 -73.2592,14.161 l 5.0981,20.581 13.2172,-0.378 -13.0281,3.493 4.9089,19.92 16.4266,3.21 -17.182,5.098 3.0211,7.175"
       style="fill:#f6a02d;fill-opacity:1;fill-rule:nonzero;stroke:none;stroke-width:0.1"
       id="path17456"
       transform="matrix(1.3333333,0,0,-1.3333333,0,666.66667)" />
    <g
       id="g17458"
       transform="matrix(0.13333333,0,0,-0.13333333,0,666.66667)">
      <g
         id="g17460"
         clip-path="url(#clipPath17464)">
        <path
           d="m 598.301,4174.18 -192.59,17.47 62.309,17.46 130.281,-34.93"
           style="fill:url(#linearGradient17470);fill-opacity:1;fill-rule:nonzero;stroke:none"
           id="path17472" />
      </g>
    </g>
    <g
       id="g17474"
       transform="matrix(0.13333333,0,0,-0.13333333,0,666.66667)">
      <g
         id="g17476"
         clip-path="url(#clipPath17480)">
        <path
           d="m 1060.28,4497.73 c -15.53,0.89 -31.09,1.87 -46.61,2.94 0.01,0.02 0.01,0.03 0.02,0.04 15.52,-1.07 31.05,-2.08 46.6,-2.96 0,-0.01 0,-0.01 -0.01,-0.02"
           style="fill:url(#linearGradient17486);fill-opacity:1;fill-rule:nonzero;stroke:none"
           id="path17488" />
      </g>
    </g>
    <path
       d="m 85.5082,409.677 c 0,0 -0.2832,14.444 2.266,17.598 2.5488,3.154 7.0805,8.175 13.0278,21.486 0.202,0.451 0.388,0.885 0.565,1.306 1.552,-0.107 3.108,-0.205 4.661,-0.294 -2.528,-6.093 -5.338,-12.094 -7.4917,-14.607 -5.098,-5.947 -6.2308,-8.779 -7.93,-12.178 -1.6993,-3.399 -5.0981,-13.311 -5.0981,-13.311"
       style="fill:#f69927;fill-opacity:1;fill-rule:nonzero;stroke:none;stroke-width:0.1"
       id="path17490"
       transform="matrix(1.3333333,0,0,-1.3333333,0,666.66667)" />
    <g
       id="g17492"
       transform="matrix(0.13333333,0,0,-0.13333333,0,666.66667)">
      <g
         id="g17494"
         clip-path="url(#clipPath17498)">
        <path
           d="m 1291.73,4491.18 c -2.05,0 -4.12,0.01 -6.17,0.01 0,0.02 0,0.05 0,0.07 1.92,0 3.85,0 5.77,0 17.65,0 35.31,0.12 52.98,0.34 0,-0.03 -0.01,-0.06 -0.01,-0.08 -17.54,-0.22 -35.05,-0.34 -52.57,-0.34"
           style="fill:url(#linearGradient17504);fill-opacity:1;fill-rule:nonzero;stroke:none"
           id="path17506" />
      </g>
    </g>
    <path
       d="m 126.12,382.86 c -1.323,0.023 -2.655,0.068 -3.983,0.105 0.536,5.65 1.33,11.79 2.455,15.666 2.549,8.78 3.682,7.93 5.382,18.693 1.699,10.762 -0.284,6.231 -1.417,14.444 -0.904,6.558 -0.184,9.51 -10e-4,17.351 0.205,0 0.412,-0.001 0.617,-0.001 1.752,0 3.503,0.012 5.257,0.034 -0.17,-0.959 -0.335,-1.936 -0.491,-2.94 -2.833,-18.126 0.566,-11.329 1.416,-18.409 0.849,-7.081 1.133,-6.798 0,-15.294 -1.133,-8.496 -3.399,-9.063 -7.081,-18.126 -1.678,-4.132 -2.116,-8.023 -2.154,-11.523"
       style="fill:#f69927;fill-opacity:1;fill-rule:nonzero;stroke:none;stroke-width:0.1"
       id="path17508"
       transform="matrix(1.3333333,0,0,-1.3333333,0,666.66667)" />
    <g
       id="g17510"
       transform="matrix(0.13333333,0,0,-0.13333333,0,666.66667)">
      <g
         id="g17512"
         clip-path="url(#clipPath17516)">
        <path
           d="m 1416.07,4493.02 c 0.01,0.02 0.01,0.04 0.02,0.05 15.3,0.45 30.64,1.01 45.96,1.62 0.01,-0.02 0.02,-0.04 0.03,-0.06 -15.35,-0.62 -30.67,-1.15 -46.01,-1.61 m 102.08,4.22 v 0.03 c 2.43,0.12 4.83,0.23 7.2,0.36 -2.4,-0.14 -4.8,-0.27 -7.2,-0.39 m 60.71,3.64 c 10.32,0.71 20.64,1.47 31.39,2.26 0.01,-0.02 0.01,-0.04 0.01,-0.06 -10.48,-0.78 -20.93,-1.51 -31.4,-2.2"
           style="fill:url(#linearGradient17522);fill-opacity:1;fill-rule:nonzero;stroke:none"
           id="path17524" />
      </g>
    </g>
    <path
       d="m 139.29,382.86 c 1.213,6.844 3.265,15.45 4.279,18.32 1.699,4.815 1.983,5.665 0.566,14.728 -1.416,9.063 -1.415,7.647 -3.397,16.71 -1.768,8.078 -0.607,11.437 0.869,16.684 1.534,0.046 3.066,0.099 4.601,0.161 0.696,-1.608 1.507,-3.466 2.472,-5.233 3.398,-6.231 1.996,-16.144 3.108,-17.277 0.058,-0.059 0.113,-0.088 0.165,-0.088 0.948,10e-4 0.936,9.598 -0.138,22.857 v 0.002 c 0.24,0.012 0.48,0.025 0.72,0.039 1.918,0.097 3.635,0.205 5.351,0.325 1.047,0.069 2.092,0.142 3.14,0.22 0.654,-4.618 1.537,-9.312 2.092,-12.309 1.417,-7.647 2.258,-11.895 -0.008,-18.41 -2.266,-6.514 -3.399,-11.612 -3.399,-16.426 0,-3.281 -1.447,-12.74 -3.586,-19.69 -1.939,-0.114 -3.885,-0.209 -5.835,-0.294 0.207,2.461 0.568,5.156 0.925,7.522 1.138,7.54 1.133,15.86 1.505,20.958 0.26,3.552 -1.26,6.141 -2.206,6.141 -0.412,0 -0.715,-0.492 -0.715,-1.609 0,-3.682 -0.85,-15.86 -1.983,-22.374 -0.472,-2.714 -1.927,-6.95 -3.56,-10.847 -1.651,-0.047 -3.307,-0.084 -4.966,-0.11"
       style="fill:#f69927;fill-opacity:1;fill-rule:nonzero;stroke:none;stroke-width:0.1"
       id="path17526"
       transform="matrix(1.3333333,0,0,-1.3333333,0,666.66667)" />
    <g
       id="g17528"
       transform="matrix(0.13333333,0,0,-0.13333333,0,666.66667)">
      <g
         id="g17530"
         clip-path="url(#clipPath17534)">
        <path
           d="m 1202.26,4492.15 c -24.78,0.54 -49.5,1.3 -74.24,2.3 0,0.02 0,0.04 0,0.07 24.73,-0.99 49.48,-1.76 74.24,-2.3 0,-0.02 0,-0.04 0,-0.07"
           style="fill:url(#linearGradient17540);fill-opacity:1;fill-rule:nonzero;stroke:none"
           id="path17542" />
      </g>
    </g>
    <path
       d="m 107.332,383.824 c -1.386,0.153 -2.768,0.309 -4.142,0.476 0.652,3.862 1.634,7.93 2.993,10.65 3.116,6.23 5.948,8.213 9.063,17.276 3.116,9.063 1.133,13.594 0,18.692 -0.34,1.53 -0.476,2.141 -0.561,2.141 -0.201,0 -0.129,-3.33 -1.738,-6.106 -2.3,-3.965 -6.764,-10.196 -10.162,-14.727 -3.3991,-4.531 -3.9655,-7.364 -7.0807,-13.878 -3.1078,-6.498 -2.834,-8.769 -3.9207,-12.476 -1.3,0.198 -2.6016,0.395 -3.8914,0.606 0.4473,2.685 1.0473,5.807 1.8644,9.321 2.8321,12.178 3.9649,10.196 7.6469,18.41 3.6815,8.213 7.6465,12.461 12.4615,21.241 1.838,3.351 2.642,8.683 2.937,13.995 2.474,-0.1 4.946,-0.176 7.424,-0.23 -0.706,-5.511 -0.883,-10.894 0.118,-14.615 1.983,-7.364 2.549,-9.346 2.832,-16.71 0.283,-7.363 -0.849,-7.363 -6.257,-14.161 -5.409,-6.797 -6.771,-10.479 -8.753,-17.276 -0.254,-0.869 -0.536,-1.753 -0.834,-2.629"
       style="fill:#f69927;fill-opacity:1;fill-rule:nonzero;stroke:none;stroke-width:0.1"
       id="path17544"
       transform="matrix(1.3333333,0,0,-1.3333333,0,666.66667)" />
    <g
       id="g17546"
       transform="matrix(0.13333333,0,0,-0.13333333,0,666.66667)">
      <g
         id="g17548"
         clip-path="url(#clipPath17552)">
        <path
           d="m 598.301,4174.18 -42.363,1.21 v 0 l 42.363,-1.21 m 154.965,353.3 c -32.75,4.5 -65.485,9.45 -98.164,14.82 0,0 0.003,0.01 0.003,0.01 l 0.04,0.05 c 32.675,-5.38 65.386,-10.34 98.132,-14.84 -0.004,-0.02 -0.007,-0.03 -0.011,-0.04"
           style="fill:url(#linearGradient17558);fill-opacity:1;fill-rule:nonzero;stroke:none"
           id="path17560" />
      </g>
    </g>
    <path
       d="m 56.8254,392.966 c -2.1524,0.549 -4.3016,1.102 -6.4254,1.686 0.4242,1.154 0.8902,2.303 1.4055,3.413 2.7023,5.821 2.6582,13.604 3.7883,19.474 l 4.2363,-0.121 -4.0328,1.082 c 0.3906,1.73 0.9054,3.271 1.6722,4.488 3.4075,5.405 0,6.514 0,13.595 0,2.041 0.2907,3.842 0.8035,5.53 l 9.8645,1.928 -7.9922,2.371 c 1.3953,2.485 3.2481,4.936 5.3649,7.818 3.2679,-0.537 6.5414,-1.032 9.8164,-1.482 -1.52,-4.221 -2.7985,-8.418 -3.1293,-11.068 -0.85,-6.797 -5.9481,-6.514 -5.9481,-10.762 0,-4.248 -0.8492,-13.311 -6.3039,-19.542 -5.4508,-6.226 -3.3285,-9.625 -3.1199,-18.41"
       style="fill:#f69927;fill-opacity:1;fill-rule:nonzero;stroke:none;stroke-width:0.1"
       id="path17562"
       transform="matrix(1.3333333,0,0,-1.3333333,0,666.66667)" />
    <g
       id="g17564"
       transform="matrix(0.13333333,0,0,-0.13333333,0,666.66667)">
      <g
         id="g17566"
         clip-path="url(#clipPath17570)">
        <path
           d="m 1681.34,4508.89 c 0.01,0.01 0.01,0.02 0.01,0.04 22.23,1.99 44.48,4.13 66.74,6.45 0,-0.01 0,-0.02 -0.01,-0.03 -22.28,-2.32 -44.48,-4.47 -66.74,-6.46"
           style="fill:url(#linearGradient17576);fill-opacity:1;fill-rule:nonzero;stroke:none"
           id="path17578" />
      </g>
    </g>
    <path
       d="m 172.03,423.459 c -1.183,10e-4 -3.024,5.13 -3.87,11.424 -1.181,8.78 -1.368,8.78 -0.235,14.161 0.118,0.562 0.18,1.189 0.209,1.845 2.226,0.199 4.446,0.414 6.674,0.646 -0.514,-2.312 -1.149,-4.871 -1.785,-7.872 -1.983,-9.346 0.566,-11.045 0,-17.559 -0.161,-1.845 -0.525,-2.645 -0.993,-2.645"
       style="fill:#f69927;fill-opacity:1;fill-rule:nonzero;stroke:none;stroke-width:0.1"
       id="path17580"
       transform="matrix(1.3333333,0,0,-1.3333333,0,666.66667)" />
    <g
       id="g17582"
       transform="matrix(0.13333333,0,0,-0.13333333,0,666.66667)">
      <g
         id="g17584"
         clip-path="url(#clipPath17588)">
        <path
           d="m 925.09,4507.79 c -24.5,2.25 -48.981,4.74 -73.442,7.46 0,0 0,0 0,0 24.469,-2.71 48.961,-5.12 73.469,-7.37 -0.008,-0.03 -0.015,-0.06 -0.027,-0.09"
           style="fill:url(#linearGradient17594);fill-opacity:1;fill-rule:nonzero;stroke:none"
           id="path17596" />
      </g>
    </g>
    <path
       d="m 74.0555,389.022 c -1.3567,0.276 -2.7094,0.557 -4.0551,0.847 0.9437,4.616 2.1519,10.759 3.0461,16.126 1.6996,10.196 0,7.93 -2.2656,14.787 -2.2657,6.857 1.1332,12.119 8.2132,18.916 3.4282,3.291 5.2539,7.513 6.1707,11.827 2.4461,-0.272 4.8942,-0.521 7.3442,-0.746 -2.3742,-7.515 -6.2902,-12.487 -10.6824,-15.329 -4.8149,-3.116 -6.2309,-5.381 -6.7973,-9.63 -0.5664,-4.248 4.8148,-6.514 4.5312,-15.01 -0.2832,-8.497 -2.2656,-7.081 -3.6816,-12.745 -0.8711,-3.485 -1.4578,-6.095 -1.8234,-9.043"
       style="fill:#f69927;fill-opacity:1;fill-rule:nonzero;stroke:none;stroke-width:0.1"
       id="path17598"
       transform="matrix(1.3333333,0,0,-1.3333333,0,666.66667)" />
    <path
       d="m 194.889,387.679 c 0.084,0.431 0.16,0.872 0.225,1.323 1.133,7.93 2.832,15.011 6.514,17.843 2.724,2.095 4.673,5.896 5.273,5.896 0.211,0 0.255,-0.47 0.108,-1.648 -0.517,-4.138 -5.028,-16.286 -2.79,-21.818 -3.097,-0.565 -6.206,-1.101 -9.33,-1.596"
       style="fill:#f69927;fill-opacity:1;fill-rule:nonzero;stroke:none;stroke-width:0.1"
       id="path17600"
       transform="matrix(1.3333333,0,0,-1.3333333,0,666.66667)" />
    <g
       id="g17602"
       transform="matrix(0.13333333,0,0,-0.13333333,0,666.66667)">
      <g
         id="g17604"
         clip-path="url(#clipPath17608)">
        <path
           d="m 1821.35,4523.55 c 0,0.02 0,0.05 0,0.08 19.41,2.32 38.82,4.76 58.25,7.32 0,-0.02 0,-0.04 0,-0.07 -19.43,-2.56 -38.84,-5.01 -58.25,-7.33 m 169.04,23.24 c 0,0.02 0.01,0.04 0.01,0.06 13.3,2.06 26.61,4.19 39.93,6.36 0,-0.03 -0.01,-0.05 -0.01,-0.07 -13.29,-2.17 -26.64,-4.3 -39.93,-6.35"
           style="fill:url(#linearGradient17614);fill-opacity:1;fill-rule:nonzero;stroke:none"
           id="path17616" />
      </g>
    </g>
    <path
       d="m 167.086,384.28 c -0.726,2.187 -0.218,5.373 3.388,10.67 9.063,13.311 11.045,8.213 13.311,19.541 2.266,11.329 -1.983,26.906 -1.699,36.252 0.014,0.486 0.031,1.027 0.049,1.612 1.941,0.232 3.882,0.477 5.825,0.733 0.373,-5.799 0.664,-11.477 1.489,-18.488 0.696,-5.917 2.39,-8.175 4.128,-8.174 2.505,0.001 5.103,4.69 4.935,9.874 -0.127,3.94 0.033,11.474 0.527,18.379 1.329,0.205 2.664,0.418 3.993,0.635 -0.502,-5.384 -1.057,-11.192 -0.555,-15.333 1.133,-9.346 2.33,-13.758 1.165,-19.199 -0.407,-1.9 -1.811,-2.342 -3.514,-2.342 -0.742,0 -1.541,0.084 -2.34,0.168 -0.798,0.084 -1.594,0.168 -2.333,0.168 -1.684,0 -3.064,-0.437 -3.457,-2.302 -1.133,-5.381 -0.849,-9.346 -2.832,-14.161 -1.982,-4.814 -7.98,-5.706 -3.709,-16.019 -6.069,-0.814 -12.195,-1.479 -18.371,-2.014"
       style="fill:#f69927;fill-opacity:1;fill-rule:nonzero;stroke:none;stroke-width:0.1"
       id="path17618"
       transform="matrix(1.3333333,0,0,-1.3333333,0,666.66667)" />
    <g
       id="g17620"
       transform="matrix(0.13333333,0,0,-0.13333333,0,666.66667)">
      <g
         id="g17622"
         clip-path="url(#clipPath17626)">
        <path
           d="m 2222.88,4576.55 -2.69,11.13 2.69,-11.13 c 0,0 0,0 0,0 m -12.8,9.11 c 0,0.02 0,0.03 0,0.05 3.38,0.67 6.74,1.3 10.11,1.97 -3.36,-0.67 -6.75,-1.35 -10.11,-2.02"
           style="fill:url(#linearGradient17632);fill-opacity:1;fill-rule:nonzero;stroke:none"
           id="path17634" />
      </g>
    </g>
    <path
       d="m 216.718,422.169 c 0.047,1.651 0.109,3.498 0.204,5.67 0.344,7.909 2.473,21.386 4.086,30.727 0.336,0.067 0.675,0.135 1.011,0.202 v 0 l 0.269,-1.113 c -0.226,-4.206 -0.51,-9.315 -0.835,-14.842 -0.456,-7.747 -0.746,-13.777 -0.788,-19.282 l -3.947,-1.362"
       style="fill:#f69927;fill-opacity:1;fill-rule:nonzero;stroke:none;stroke-width:0.1"
       id="path17636"
       transform="matrix(1.3333333,0,0,-1.3333333,0,666.66667)" />
    <g
       id="g17638"
       transform="matrix(0.13333333,0,0,-0.13333333,0,666.66667)">
      <g
         id="g17640"
         clip-path="url(#clipPath17644)">
        <path
           d="m 2207.41,4170.1 -41.34,7.71 v 0 l 41.34,-7.71 v 0"
           style="fill:url(#linearGradient17650);fill-opacity:1;fill-rule:nonzero;stroke:none"
           id="path17652" />
      </g>
    </g>
    <path
       d="m 211.696,390.713 c 1.523,2.897 2.79,7.062 3.526,11.6 1.133,6.983 1.259,10.237 1.385,15.468 l 4.134,-0.771 c 0.08,-2.417 0.22,-4.824 0.429,-7.333 0.546,-6.561 1.208,-11.712 1.537,-16.59 -3.651,-0.842 -7.323,-1.629 -11.011,-2.374"
       style="fill:#f69927;fill-opacity:1;fill-rule:nonzero;stroke:none;stroke-width:0.1"
       id="path17654"
       transform="matrix(1.3333333,0,0,-1.3333333,0,666.66667)" />
    <g
       id="g17656"
       transform="matrix(0.13333333,0,0,-0.13333333,0,666.66667)">
      <g
         id="g17658"
         clip-path="url(#clipPath17662)">
        <path
           d="m 774.918,4462.11 c 0,0 -77.473,-220.88 -74.008,-230.91 3.461,-10.04 72.195,-44.5 72.195,-44.5 h -78.476 l -36.914,-156.07 c 0,0 173.586,-65.56 404.115,-81.44 230.53,-15.89 512.72,-20.58 642.91,0.15 130.18,20.73 406.46,52.69 406.46,52.69 0,0 -43.28,158.17 -56.59,158.03 -13.32,-0.14 -81.39,26.48 -81.39,26.48 0,0 119.28,69.36 148.6,89.62 29.32,20.26 -44.51,220.87 -50.87,215.43 -6.36,-5.44 -254.85,-42.45 -448.48,-63.88 -193.64,-21.44 -847.552,34.4 -847.552,34.4"
           style="fill:url(#linearGradient17668);fill-opacity:1;fill-rule:nonzero;stroke:none"
           id="path17670" />
      </g>
    </g>
    <path
       d="m 81.2559,440.557 -5.9278,-17.94 4.4215,-3.914 -6.9199,-2.107 -2.8293,-11.267 c 0,0 15.9644,-2.881 24.6187,-5.273 8.6539,-2.392 34.3949,-4.567 46.8219,-3.914 12.427,0.652 38.324,1.203 47.58,2.336 9.256,1.133 18.074,4.622 18.074,4.622 l -3.176,11.045 -11.551,3.182 18.086,12.856 -4.439,15.104 c 0,0 -14.423,-3.791 -28.625,-4.722 -14.202,-0.932 -47.488,-0.59 -56.142,0 -8.655,0.59 -39.9921,-0.008 -39.9921,-0.008"
       style="fill:#f6a02d;fill-opacity:1;fill-rule:nonzero;stroke:none;stroke-width:0.1"
       id="path17672"
       transform="matrix(1.3333333,0,0,-1.3333333,0,666.66667)" />
    <g
       id="g17674"
       transform="matrix(0.13333333,0,0,-0.13333333,0,666.66667)">
      <g
         id="g17676"
         clip-path="url(#clipPath17680)">
        <path
           d="m 1062.27,4253.79 v -39.57 h 15.92 c 11.11,0 19.2,1.3 24.26,3.94 4.85,2.63 7.27,7.72 7.27,15.3 0,4.95 -1.32,9.15 -3.94,12.59 -2.53,3.34 -5.92,5.46 -10.16,6.37 -4.04,0.91 -10.92,1.37 -20.62,1.37 z m 21.22,-164.65 H 960.23 v 50.49 h 20.477 v 109.9 H 960.23 v 50.49 h 129.32 c 29.72,0 51.45,-2.88 65.19,-8.63 13.75,-5.87 23.86,-13.87 30.32,-23.97 6.48,-10.1 9.72,-21.17 9.72,-33.19 0,-14.86 -3.85,-27.19 -11.54,-37 -7.67,-9.9 -17.83,-17.08 -30.46,-21.52 -12.43,-4.35 -31.63,-6.52 -57.61,-6.52 h -32.9 v -29.56 h 21.22 v -50.49"
           style="fill:url(#linearGradient17686);fill-opacity:1;fill-rule:nonzero;stroke:none"
           id="path17688" />
      </g>
    </g>
    <g
       id="g17690"
       transform="matrix(0.13333333,0,0,-0.13333333,0,666.66667)">
      <g
         id="g17692"
         clip-path="url(#clipPath17696)">
        <path
           d="m 1413.99,4089.14 h -200.72 v 50.49 h 18.95 v 109.9 h -18.95 v 50.49 h 120.53 v -50.49 h -20.01 v -109.9 h 49.87 v 33.8 h 50.33 v -84.29"
           style="fill:url(#linearGradient17702);fill-opacity:1;fill-rule:nonzero;stroke:none"
           id="path17704" />
      </g>
    </g>
    <g
       id="g17706"
       transform="matrix(0.13333333,0,0,-0.13333333,0,666.66667)">
      <g
         id="g17708"
         clip-path="url(#clipPath17712)">
        <path
           d="m 1525.88,4246.5 -19.86,-58.36 h 37.75 z m -19.86,-157.36 h -83.53 v 50.49 h 16.07 l 39.56,109.9 h -16.98 v 50.49 h 151.62 v -50.49 h -16.98 l 40.32,-109.9 h 15.47 v -50.49 h -110.08 v 46.23 H 1560 l -8.04,26.54 h -53.97 l -9.25,-26.54 h 17.28 v -46.23"
           style="fill:url(#linearGradient17718);fill-opacity:1;fill-rule:nonzero;stroke:none"
           id="path17720" />
      </g>
    </g>
    <g
       id="g17722"
       transform="matrix(0.13333333,0,0,-0.13333333,0,666.66667)">
      <g
         id="g17724"
         clip-path="url(#clipPath17728)">
        <path
           d="m 1810.75,4089.14 h -115.23 v 50.49 h 16.98 v 33.5 l -53.22,76.4 h -14.39 v 50.49 h 110.22 v -50.49 h -12.59 l 22.44,-43.05 27.14,43.05 h -12.89 v 50.49 h 81.11 v -50.49 h -13.19 l -53.07,-76.4 v -33.5 h 16.69 v -50.49"
           style="fill:url(#linearGradient17734);fill-opacity:1;fill-rule:nonzero;stroke:none"
           id="path17736" />
      </g>
    </g>
    <path
       d="m 105.426,426.832 v -3.957 h 1.592 c 1.112,0 1.92,0.13 2.426,0.394 0.485,0.263 0.727,0.773 0.727,1.531 0,0.495 -0.131,0.915 -0.394,1.258 -0.252,0.335 -0.592,0.546 -1.016,0.637 -0.404,0.091 -1.092,0.137 -2.062,0.137 z m 2.122,-16.465 H 95.2223 v 5.049 h 2.0476 v 10.991 h -2.0476 v 5.048 h 12.9317 c 2.973,0 5.145,-0.287 6.52,-0.863 1.374,-0.586 2.386,-1.386 3.032,-2.396 0.647,-1.01 0.971,-2.117 0.971,-3.32 0,-1.486 -0.385,-2.719 -1.153,-3.699 -0.767,-0.991 -1.784,-1.708 -3.047,-2.153 -1.243,-0.434 -3.163,-0.651 -5.761,-0.651 h -3.29 v -2.957 h 2.122 v -5.049"
       style="fill:#fbc780;fill-opacity:1;fill-rule:nonzero;stroke:none;stroke-width:0.1"
       id="path17738"
       transform="matrix(1.3333333,0,0,-1.3333333,0,666.66667)" />
    <path
       d="m 140.599,410.367 h -20.073 v 5.049 h 1.896 v 10.991 h -1.896 v 5.048 h 12.053 v -5.048 h -2.001 v -10.991 h 4.988 v 3.38 h 5.033 v -8.429"
       style="fill:#fbc780;fill-opacity:1;fill-rule:nonzero;stroke:none;stroke-width:0.1"
       id="path17740"
       transform="matrix(1.3333333,0,0,-1.3333333,0,666.66667)" />
    <path
       d="m 151.787,426.104 -1.985,-5.837 h 3.774 z m -1.985,-15.737 h -8.354 v 5.049 h 1.607 l 3.956,10.991 h -1.698 v 5.048 h 15.162 v -5.048 h -1.698 l 4.032,-10.991 h 1.547 v -5.049 h -11.007 v 4.624 h 1.85 l -0.804,2.654 h -5.397 l -0.924,-2.654 h 1.728 v -4.624"
       style="fill:#fbc780;fill-opacity:1;fill-rule:nonzero;stroke:none;stroke-width:0.1"
       id="path17742"
       transform="matrix(1.3333333,0,0,-1.3333333,0,666.66667)" />
    <path
       d="m 180.274,410.367 h -11.523 v 5.049 h 1.698 v 3.351 l -5.322,7.64 h -1.439 v 5.048 h 11.022 v -5.048 h -1.258 l 2.244,-4.305 2.713,4.305 h -1.288 v 5.048 h 8.111 v -5.048 h -1.32 l -5.306,-7.64 v -3.351 h 1.668 v -5.049"
       style="fill:#fbc780;fill-opacity:1;fill-rule:nonzero;stroke:none;stroke-width:0.1"
       id="path17744"
       transform="matrix(1.3333333,0,0,-1.3333333,0,666.66667)" />
  </g>
</svg>
