<?xml version="1.0" encoding="UTF-8" standalone="no"?>
<!-- Created with Inkscape (http://www.inkscape.org/) -->

<svg
   version="1.1"
   id="svg640"
   width="226.27998"
   height="226.27998"
   viewBox="0 0 226.27998 226.27998"
   sodipodi:docname="g10002.svg"
   xmlns:inkscape="http://www.inkscape.org/namespaces/inkscape"
   xmlns:sodipodi="http://sodipodi.sourceforge.net/DTD/sodipodi-0.dtd"
   xmlns="http://www.w3.org/2000/svg"
   xmlns:svg="http://www.w3.org/2000/svg">
  <defs
     id="defs644">
    <clipPath
       clipPathUnits="userSpaceOnUse"
       id="clipPath10008">
      <path
         d="m 22712.1,5935.8 c -388.1,0 -702.8,314.7 -702.8,702.8 0,388.2 314.7,702.9 702.8,702.9 388.2,0 702.9,-314.7 702.9,-702.9 0,-388.1 -314.7,-702.8 -702.9,-702.8 m -10.2,1169.8 c -11.1,0 -22.3,-0.4 -33.3,-1.2 -230.7,-16.1 -416.8,-202.2 -432.9,-432.9 -16.9,-242.1 150.4,-454.6 389.3,-494.3 5.5,-1 11,-1.4 16.6,-1.4 56.1,0 101.8,46.2 101.8,103 v 23.3 c 0,49.5 -35.7,92.1 -85,101.2 -122.6,22.6 -207.7,137.9 -193.9,262.4 12.2,109.4 100.5,197.7 209.9,209.9 9.2,1 18.4,1.5 27.5,1.5 103.1,0 193.5,-67 226,-161.7 -95.7,-8 -109.7,-20.9 -119.2,-40 -12,-24 -3.9,-50.3 34.6,-112.8 27.1,-43.8 65,-96.9 98.9,-138.5 59.1,-72.5 85.6,-87.1 109.3,-87.1 43.3,0 95.2,45.5 154.2,135.2 13.6,20.5 81,125.9 81,184.6 0,47.2 -51.9,58.4 -124.5,62.4 -9.3,54 -27.7,104.6 -53.5,150.2 0.5,-0.1 1,-0.1 1.6,-0.1 34.7,0 64.2,13.1 81.9,43.6 83.5,144.3 -129.1,335.8 -244.2,335.8 -14.8,0 -28,-3.2 -38.7,-10 -66.5,-42.4 -82.1,-98.4 -67.9,-154 -44.1,13.6 -90.9,20.9 -139.5,20.9"
         id="path10006" />
    </clipPath>
    <clipPath
       clipPathUnits="userSpaceOnUse"
       id="clipPath10042">
      <path
         d="m 23108.7,6869.4 c -99.2,1.1 -239.6,107.3 -267.3,215.3 114,-35.3 209.3,-112.7 267.3,-215.3"
         id="path10040" />
    </clipPath>
    <radialGradient
       fx="0"
       fy="0"
       cx="0"
       cy="0"
       r="1"
       gradientUnits="userSpaceOnUse"
       gradientTransform="matrix(188.475,0,0,-188.475,23023.9,7059)"
       spreadMethod="pad"
       id="radialGradient10048">
      <stop
         style="stop-opacity:1;stop-color:#ffffff"
         offset="0"
         id="stop10044" />
      <stop
         style="stop-opacity:1;stop-color:#ffffff"
         offset="1"
         id="stop10046" />
    </radialGradient>
  </defs>
  <sodipodi:namedview
     id="namedview642"
     pagecolor="#ffffff"
     bordercolor="#000000"
     borderopacity="0.25"
     inkscape:showpageshadow="2"
     inkscape:pageopacity="0.0"
     inkscape:pagecheckerboard="0"
     inkscape:deskcolor="#d1d1d1"
     showgrid="false" />
  <g
     inkscape:groupmode="layer"
     id="layer2"
     inkscape:label="Page 3"
     transform="translate(-2915.1466,-1668.3734)">
    <g
       id="g10002"
       transform="matrix(0.13333333,0,0,-0.13333333,0,2666.6667)"
       style="display:inline;fill:#008000">
      <g
         id="g10004"
         clip-path="url(#clipPath10008)"
         style="fill:#008000">
        <path
           d="m 22712.1,5935.8 c -388.1,0 -702.8,314.7 -702.8,702.8 0,388.2 314.7,702.9 702.8,702.9 388.2,0 702.9,-314.7 702.9,-702.9 0,-388.1 -314.7,-702.8 -702.9,-702.8 m -10.2,1169.8 c -11.1,0 -22.3,-0.4 -33.3,-1.2 -230.7,-16.1 -416.8,-202.2 -432.9,-432.9 -16.9,-242.1 150.4,-454.6 389.3,-494.3 5.5,-1 11,-1.4 16.6,-1.4 56.1,0 101.8,46.2 101.8,103 v 23.3 c 0,49.5 -35.7,92.1 -85,101.2 -122.6,22.6 -207.7,137.9 -193.9,262.4 12.2,109.4 100.5,197.7 209.9,209.9 9.2,1 18.4,1.5 27.5,1.5 103.1,0 193.5,-67 226,-161.7 -95.7,-8 -109.7,-20.9 -119.2,-40 -12,-24 -3.9,-50.3 34.6,-112.8 27.1,-43.8 65,-96.9 98.9,-138.5 59.1,-72.5 85.6,-87.1 109.3,-87.1 43.3,0 95.2,45.5 154.2,135.2 13.6,20.5 81,125.9 81,184.6 0,47.2 -51.9,58.4 -124.5,62.4 -9.3,54 -27.7,104.6 -53.5,150.2 0.5,-0.1 1,-0.1 1.6,-0.1 34.7,0 64.2,13.1 81.9,43.6 83.5,144.3 -129.1,335.8 -244.2,335.8 -14.8,0 -28,-3.2 -38.7,-10 -66.5,-42.4 -82.1,-98.4 -67.9,-154 -44.1,13.6 -90.9,20.9 -139.5,20.9"
           style="fill:#008000;fill-opacity:1;fill-rule:nonzero;stroke:none"
           id="path10018" />
      </g>
    </g>
    <path
       d="m 2271.21,741.87 c -43,0 -78,-35 -78,-78.01 0,-43.01 35,-78 78,-78 43.02,0 78.01,34.99 78.01,78 0,43.01 -34.99,78.01 -78.01,78.01 m 0,-162.86 c -46.79,0 -84.85,38.06 -84.85,84.85 0,46.8 38.06,84.86 84.85,84.86 46.8,0 84.86,-38.06 84.86,-84.86 0,-46.79 -38.06,-84.85 -84.86,-84.85"
       style="display:inline;fill:#e3dbdb;fill-opacity:1;fill-rule:nonzero;stroke:none;stroke-width:0.1"
       id="path10020"
       transform="matrix(1.3333333,0,0,-1.3333333,0,2666.6667)"
       inkscape:export-filename="restart2.svg"
       inkscape:export-xdpi="96"
       inkscape:export-ydpi="96" />
    <path
       d="m 2316.22,671.92 c -3.86,22.27 -23.04,38.64 -46.03,38.64 -1.11,0 -2.23,-0.04 -3.33,-0.12 -23.07,-1.61 -41.68,-20.22 -43.29,-43.29 -1.69,-24.21 15.04,-45.46 38.93,-49.43 0.55,-0.1 1.1,-0.14 1.66,-0.14 5.61,0 10.18,4.62 10.18,10.3 v 2.33 c 0,4.95 -3.57,9.21 -8.5,10.12 -12.26,2.26 -20.77,13.79 -19.39,26.24 1.22,10.94 10.05,19.77 20.99,20.99 0.92,0.1 1.84,0.15 2.75,0.15 10.31,0 19.35,-6.7 22.6,-16.17 -9.57,-0.8 -10.97,-2.09 -11.92,-4 -1.2,-2.4 -0.39,-5.03 3.46,-11.28 2.71,-4.38 6.5,-9.69 9.89,-13.85 5.91,-7.25 8.56,-8.71 10.93,-8.71 4.33,0 9.52,4.55 15.42,13.52 1.36,2.05 8.1,12.59 8.1,18.46 0,4.72 -5.19,5.84 -12.45,6.24"
       style="display:inline;fill:#ffffff;fill-opacity:1;fill-rule:nonzero;stroke:none;stroke-width:0.1"
       id="path10022"
       transform="matrix(1.3333333,0,0,-1.3333333,0,2666.6667)" />
    <g
       id="g10036"
       transform="matrix(0.13333333,0,0,-0.13333333,0,2666.6667)"
       style="display:inline">
      <g
         id="g10038"
         clip-path="url(#clipPath10042)">
        <path
           d="m 23108.7,6869.4 c -99.2,1.1 -239.6,107.3 -267.3,215.3 114,-35.3 209.3,-112.7 267.3,-215.3"
           style="fill:url(#radialGradient10048);fill-opacity:1;fill-rule:nonzero;stroke:none"
           id="path10050" />
      </g>
    </g>
  </g>
</svg>
